<svg width="18" height="18" viewBox="0 0 18 18" fill="none" xmlns="http://www.w3.org/2000/svg">
<path d="M17.0684 9.04334C17.0684 8.63309 16.9285 8.2881 16.6488 8.00838C16.3691 7.72866 16.0241 7.5888 15.6138 7.5888H2.91453V3.05733C2.91453 2.68437 3.04506 2.36735 3.30614 2.10628C3.49262 1.9198 3.70707 1.80791 3.94949 1.77061C4.19192 1.73332 4.44367 1.75197 4.70474 1.82656C4.36907 2.3487 4.23854 2.92679 4.31313 3.56082C4.38772 4.19486 4.64879 4.73565 5.09635 5.1832L5.20823 5.35103C5.32012 5.42563 5.44133 5.46292 5.57187 5.46292C5.70241 5.46292 5.80497 5.42563 5.87956 5.35103L9.06837 2.16222C9.18026 2.05033 9.23621 1.92912 9.23621 1.79859C9.23621 1.66805 9.18026 1.54684 9.06837 1.43495L8.95649 1.32306C8.47164 0.838213 7.88422 0.577141 7.19425 0.539845C6.50427 0.502548 5.89821 0.68903 5.37607 1.09929C4.92851 0.838213 4.44367 0.735649 3.92152 0.791594C3.39938 0.847538 2.95182 1.06199 2.57886 1.43495C2.13131 1.8825 1.90753 2.4233 1.90753 3.05733V7.5888H1.7397C1.32945 7.5888 0.984457 7.72866 0.704737 8.00838C0.425016 8.2881 0.285156 8.63309 0.285156 9.04334C0.285156 9.37901 0.378396 9.66805 0.564877 9.91048C0.751357 10.1529 0.975133 10.3301 1.23621 10.4419V11.5049C1.23621 12.4 1.47863 13.2205 1.96348 13.9664C2.44833 14.7123 3.06371 15.2904 3.80963 15.7007L3.36208 16.5958C3.28749 16.745 3.27816 16.8755 3.33411 16.9874C3.39005 17.0993 3.47397 17.1925 3.58586 17.2671C3.69774 17.3417 3.81896 17.351 3.94949 17.2951C4.08003 17.2391 4.18259 17.1552 4.25718 17.0433L4.76068 16.0363C5.13364 16.1109 5.52525 16.1482 5.93551 16.1482H11.418C11.8283 16.1482 12.2199 16.1109 12.5928 16.0363L13.0963 17.0433C13.1709 17.1552 13.2735 17.2391 13.404 17.2951C13.5346 17.351 13.6558 17.3417 13.7677 17.2671C13.8796 17.1925 13.9635 17.0993 14.0194 16.9874C14.0754 16.8755 14.066 16.745 13.9915 16.5958L13.5439 15.7007C14.2898 15.2904 14.9052 14.7123 15.3901 13.9664C15.8749 13.2205 16.1173 12.4 16.1173 11.5049V10.4419C16.3784 10.3301 16.6022 10.1529 16.7887 9.91048C16.9751 9.66805 17.0684 9.37901 17.0684 9.04334ZM8.00544 1.82656L5.59984 4.2881C5.33877 3.91514 5.22688 3.52353 5.26418 3.11327C5.30147 2.70302 5.46931 2.3487 5.76767 2.05033C6.06604 1.75197 6.42968 1.58413 6.85858 1.54684C7.28749 1.50954 7.66977 1.60278 8.00544 1.82656ZM1.7397 8.59579H15.6138C15.7257 8.59579 15.8283 8.64241 15.9215 8.73565C16.0148 8.82889 16.0614 8.94078 16.0614 9.07131C16.0614 9.20185 16.0148 9.31374 15.9215 9.40698C15.8283 9.50022 15.7257 9.54684 15.6138 9.54684H1.7397C1.62781 9.54684 1.52525 9.50022 1.43201 9.40698C1.33877 9.31374 1.29215 9.20185 1.29215 9.07131C1.29215 8.94078 1.33877 8.82889 1.43201 8.73565C1.52525 8.64241 1.62781 8.59579 1.7397 8.59579ZM15.1103 11.5049C15.1103 12.1762 14.9425 12.7916 14.6068 13.351C14.2712 13.9105 13.8236 14.358 13.2642 14.6937C12.7047 15.0294 12.0894 15.1972 11.418 15.1972H5.93551C5.26418 15.1972 4.64879 15.0294 4.08935 14.6937C3.52991 14.358 3.08236 13.9105 2.7467 13.351C2.41103 12.7916 2.2432 12.1762 2.2432 11.5049V10.5538H15.1103V11.5049ZM7.39005 5.51887C7.39005 5.66805 7.43667 5.78926 7.52991 5.8825C7.62315 5.97574 7.73504 6.02236 7.86558 6.02236C7.99611 6.02236 8.108 5.97574 8.20124 5.8825C8.29448 5.78926 8.3411 5.66805 8.3411 5.51887C8.3411 5.36968 8.29448 5.24847 8.20124 5.15523C8.108 5.06199 7.99611 5.01537 7.86558 5.01537C7.73504 5.01537 7.62315 5.06199 7.52991 5.15523C7.43667 5.24847 7.39005 5.36968 7.39005 5.51887ZM8.78865 4.12027C8.78865 4.26945 8.83527 4.39066 8.92851 4.4839C9.02175 4.57714 9.13364 4.62376 9.26418 4.62376C9.39471 4.62376 9.5066 4.57714 9.59984 4.4839C9.69308 4.39066 9.7397 4.26945 9.7397 4.12027C9.7397 3.97108 9.69308 3.84987 9.59984 3.75663C9.5066 3.66339 9.39471 3.61677 9.26418 3.61677C9.13364 3.61677 9.02175 3.66339 8.92851 3.75663C8.83527 3.84987 8.78865 3.97108 8.78865 4.12027ZM9.12432 5.85453C9.12432 5.96642 9.17094 6.07831 9.26418 6.1902C9.35742 6.30208 9.46931 6.35803 9.59984 6.35803C9.73038 6.35803 9.84227 6.30208 9.93551 6.1902C10.0287 6.07831 10.0754 5.9571 10.0754 5.82656C10.0754 5.69602 10.0287 5.58413 9.93551 5.49089C9.84227 5.39765 9.73038 5.35103 9.59984 5.35103C9.46931 5.35103 9.35742 5.39765 9.26418 5.49089C9.17094 5.58413 9.12432 5.70535 9.12432 5.85453Z" fill="black"/>
</svg>
