<svg width="18" height="12" viewBox="0 0 18 12" fill="none" xmlns="http://www.w3.org/2000/svg">
<path d="M15.3012 2.79899H7.91656C7.5436 2.79899 7.18929 2.91087 6.85363 3.13465C6.77903 2.57521 6.54593 2.11833 6.15433 1.76402C5.76272 1.40971 5.30584 1.23255 4.7837 1.23255C4.37344 1.23255 4.00048 1.32579 3.66481 1.51227V0.673112C3.66481 0.523928 3.61819 0.402716 3.52495 0.309476C3.43171 0.216236 3.3105 0.169616 3.16132 0.169616H1.09139C0.942203 0.169616 0.820991 0.216236 0.727751 0.309476C0.634511 0.402716 0.587891 0.523928 0.587891 0.673112V11.1906C0.587891 11.3398 0.634511 11.461 0.727751 11.5542C0.820991 11.6475 0.942203 11.6941 1.09139 11.6941H3.16132C3.3105 11.6941 3.43171 11.6475 3.52495 11.5542C3.61819 11.461 3.66481 11.3398 3.66481 11.1906V9.56822H14.2942V11.1906C14.2942 11.3398 14.3408 11.461 14.434 11.5542C14.5273 11.6475 14.6485 11.6941 14.7977 11.6941H16.8676C17.0168 11.6941 17.138 11.6475 17.2312 11.5542C17.3245 11.461 17.3711 11.3398 17.3711 11.1906V4.86892C17.3711 4.30948 17.166 3.82463 16.7557 3.41437C16.3455 3.00411 15.8606 2.79899 15.3012 2.79899ZM4.7837 2.1836C5.08206 2.1836 5.33381 2.29549 5.53894 2.51927C5.74407 2.74304 5.84663 3.00411 5.84663 3.30248C5.84663 3.60085 5.74407 3.8526 5.53894 4.05773C5.33381 4.26286 5.08206 4.36542 4.7837 4.36542C4.48533 4.36542 4.22425 4.26286 4.00048 4.05773C3.7767 3.8526 3.66481 3.60085 3.66481 3.30248C3.66481 3.00411 3.7767 2.74304 4.00048 2.51927C4.22425 2.29549 4.48533 2.1836 4.7837 2.1836ZM3.66481 5.03675C4.00048 5.26053 4.36411 5.37241 4.75572 5.37241C5.14733 5.37241 5.51097 5.26053 5.84663 5.03675V6.49129H3.66481V5.03675ZM16.3641 10.6871H15.2452V9.06472C15.2452 8.95283 15.1986 8.85027 15.1054 8.75703C15.0121 8.66379 14.9096 8.61717 14.7977 8.61717H3.16132C3.04943 8.61717 2.94687 8.66379 2.85363 8.75703C2.76039 8.85027 2.71376 8.95283 2.71376 9.06472V10.6871H1.59488V1.17661H2.71376V6.99479C2.71376 7.10668 2.76039 7.21857 2.85363 7.33046C2.94687 7.44234 3.04943 7.49829 3.16132 7.49829H16.3641V10.6871ZM16.3641 6.49129H6.85363V4.86892C6.85363 4.57055 6.95619 4.3188 7.16132 4.11367C7.36645 3.90854 7.61819 3.80598 7.91656 3.80598H15.3012C15.5995 3.80598 15.8513 3.90854 16.0564 4.11367C16.2616 4.3188 16.3641 4.57055 16.3641 4.86892V6.49129Z" fill="black"/>
</svg>
