<svg width="38" height="26" viewBox="0 0 38 26" fill="none" xmlns="http://www.w3.org/2000/svg">
<path opacity="0.15" d="M10.05 25.96C7.71662 25.96 5.61662 25.0267 3.74995 23.16C1.88329 21.2267 0.949951 18.3933 0.949951 14.66C0.949951 10.3933 2.08328 6.92666 4.34995 4.26C6.68328 1.52667 9.98328 0.160004 14.25 0.160004C15.7833 0.160004 16.9833 0.260002 17.85 0.459999V5.06C16.9167 4.92666 15.7167 4.86 14.25 4.86C11.9833 4.86 10.15 5.62666 8.74995 7.16C7.41662 8.49333 6.64995 10.26 6.44995 12.46C7.31662 11.3933 8.71662 10.86 10.65 10.86C12.65 10.86 14.35 11.56 15.75 12.96C17.15 14.2933 17.85 16.06 17.85 18.26C17.85 20.5267 17.1167 22.3933 15.65 23.86C14.1833 25.26 12.3167 25.96 10.05 25.96ZM29.95 25.96C27.6167 25.96 25.5167 25.0267 23.65 23.16C21.7833 21.2267 20.85 18.3933 20.85 14.66C20.85 10.3933 21.9832 6.92666 24.25 4.26C26.5833 1.52667 29.8833 0.160004 34.15 0.160004C35.6833 0.160004 36.8833 0.260002 37.75 0.459999V5.06C36.8167 4.92666 35.6167 4.86 34.15 4.86C31.8833 4.86 30.05 5.62666 28.65 7.16C27.3167 8.49333 26.55 10.26 26.35 12.46C27.2167 11.3933 28.6167 10.86 30.55 10.86C32.55 10.86 34.25 11.56 35.65 12.96C37.05 14.2933 37.75 16.06 37.75 18.26C37.75 20.5267 37.0167 22.3933 35.5499 23.86C34.0832 25.26 32.2167 25.96 29.95 25.96Z" fill="#EBB51D"/>
</svg>
