<svg width="40" height="40" viewBox="0 0 40 40" fill="none" xmlns="http://www.w3.org/2000/svg">
<circle cx="20" cy="20" r="20" fill="#EBB51D"/>
<path d="M27.5 18.3334C27.5 24.1667 20 29.1667 20 29.1667C20 29.1667 12.5 24.1667 12.5 18.3334C12.5 16.3443 13.2902 14.4366 14.6967 13.0301C16.1032 11.6236 18.0109 10.8334 20 10.8334C21.9891 10.8334 23.8968 11.6236 25.3033 13.0301C26.7098 14.4366 27.5 16.3443 27.5 18.3334Z" stroke="#1F4B43" stroke-width="1.5" stroke-linecap="round" stroke-linejoin="round"/>
<path d="M20 20.8334C21.3807 20.8334 22.5 19.7141 22.5 18.3334C22.5 16.9527 21.3807 15.8334 20 15.8334C18.6193 15.8334 17.5 16.9527 17.5 18.3334C17.5 19.7141 18.6193 20.8334 20 20.8334Z" stroke="#1F4B43" stroke-width="1.5" stroke-linecap="round" stroke-linejoin="round"/>
</svg>
