<svg width="40" height="40" viewBox="0 0 40 40" fill="none" xmlns="http://www.w3.org/2000/svg">
<circle cx="20" cy="20" r="20" fill="#EBB51D"/>
<path d="M22.5417 14.1667C23.3556 14.3255 24.1036 14.7236 24.69 15.31C25.2764 15.8964 25.6745 16.6444 25.8333 17.4584M22.5417 10.8334C24.2327 11.0212 25.8096 11.7785 27.0135 12.9809C28.2174 14.1832 28.9767 15.7592 29.1667 17.45M28.3333 24.1V26.6C28.3343 26.8321 28.2867 27.0618 28.1937 27.2745C28.1008 27.4871 27.9644 27.678 27.7934 27.8349C27.6224 27.9918 27.4205 28.1113 27.2006 28.1856C26.9808 28.26 26.7478 28.2876 26.5167 28.2667C23.9523 27.9881 21.4892 27.1118 19.325 25.7084C17.3115 24.4289 15.6044 22.7218 14.325 20.7084C12.9166 18.5344 12.0402 16.0592 11.7667 13.4834C11.7458 13.2529 11.7732 13.0207 11.8471 12.8014C11.9209 12.5821 12.0396 12.3806 12.1956 12.2097C12.3516 12.0388 12.5415 11.9023 12.7531 11.8088C12.9648 11.7153 13.1936 11.6669 13.425 11.6667H15.925C16.3294 11.6627 16.7215 11.8059 17.0281 12.0697C17.3348 12.3334 17.535 12.6996 17.5917 13.1C17.6972 13.9001 17.8929 14.6856 18.175 15.4417C18.2871 15.74 18.3114 16.0641 18.2449 16.3758C18.1784 16.6874 18.024 16.9735 17.8 17.2L16.7417 18.2584C17.9279 20.3447 19.6554 22.0721 21.7417 23.2584L22.8 22.2C23.0266 21.976 23.3126 21.8216 23.6243 21.7551C23.9359 21.6887 24.26 21.7129 24.5583 21.825C25.3144 22.1072 26.0999 22.3029 26.9 22.4084C27.3048 22.4655 27.6745 22.6694 27.9388 22.9813C28.203 23.2932 28.3435 23.6914 28.3333 24.1Z" stroke="#1F4B43" stroke-width="1.5" stroke-linecap="round" stroke-linejoin="round"/>
</svg>
