<svg width="17" height="18" viewBox="0 0 17 18" fill="none" xmlns="http://www.w3.org/2000/svg">
<path d="M13.3088 16.316H11.2948C11.183 16.316 11.0711 16.3719 10.9592 16.4838C10.8473 16.5957 10.7913 16.7169 10.7913 16.8475C10.7913 16.978 10.8473 17.0899 10.9592 17.1831C11.0711 17.2764 11.183 17.323 11.2948 17.323H13.3088C13.458 17.323 13.5792 17.2764 13.6725 17.1831C13.7657 17.0899 13.8123 16.978 13.8123 16.8475C13.8123 16.7169 13.7657 16.5957 13.6725 16.4838C13.5792 16.3719 13.458 16.316 13.3088 16.316ZM9.3368 16.316H7.37876C7.22957 16.316 7.10836 16.3719 7.01512 16.4838C6.92188 16.5957 6.87526 16.7169 6.87526 16.8475C6.87526 16.978 6.92188 17.0899 7.01512 17.1831C7.10836 17.2764 7.22957 17.323 7.37876 17.323H9.3368C9.48598 17.323 9.6072 17.2764 9.70044 17.1831C9.79368 17.0899 9.8403 16.978 9.8403 16.8475C9.8403 16.7169 9.79368 16.5957 9.70044 16.4838C9.6072 16.3719 9.48598 16.316 9.3368 16.316ZM16.2739 7.4209C16.162 7.4209 16.0501 7.46752 15.9382 7.56076C15.8263 7.654 15.7704 7.77521 15.7704 7.9244V9.88244C15.7704 10.0316 15.8263 10.1528 15.9382 10.2461C16.0501 10.3393 16.1713 10.3859 16.3018 10.3859C16.4324 10.3859 16.5443 10.3393 16.6375 10.2461C16.7307 10.1528 16.7774 10.0316 16.7774 9.88244V7.9244C16.7774 7.77521 16.7307 7.654 16.6375 7.56076C16.5443 7.46752 16.423 7.4209 16.2739 7.4209ZM16.2739 11.337C16.162 11.337 16.0501 11.3929 15.9382 11.5048C15.8263 11.6167 15.7704 11.7286 15.7704 11.8405V13.7985C15.7704 13.9477 15.8263 14.0689 15.9382 14.1622C16.0501 14.2554 16.1713 14.302 16.3018 14.302C16.4324 14.302 16.5443 14.2554 16.6375 14.1622C16.7307 14.0689 16.7774 13.9477 16.7774 13.7985V11.8405C16.7774 11.7286 16.7307 11.6167 16.6375 11.5048C16.5443 11.3929 16.423 11.337 16.2739 11.337ZM5.42071 16.316H4.91722V15.8685C4.91722 15.7193 4.8706 15.5981 4.77736 15.5048C4.68412 15.4116 4.56291 15.365 4.41372 15.365C4.26454 15.365 4.14333 15.4116 4.05009 15.5048C3.95685 15.5981 3.91022 15.7193 3.91022 15.8685V16.8195C3.91022 16.9687 3.95685 17.0899 4.05009 17.1831C4.14333 17.2764 4.26454 17.323 4.41372 17.323H5.42071C5.5326 17.323 5.63517 17.2764 5.72841 17.1831C5.82165 17.0899 5.86827 16.978 5.86827 16.8475C5.86827 16.7169 5.82165 16.5957 5.72841 16.4838C5.63517 16.3719 5.5326 16.316 5.42071 16.316ZM16.2739 4.45586H15.3228C15.1736 4.45586 15.0524 4.50248 14.9592 4.59572C14.8659 4.68896 14.8193 4.81018 14.8193 4.95936C14.8193 5.10854 14.8659 5.22976 14.9592 5.323C15.0524 5.41624 15.1736 5.46286 15.3228 5.46286H15.7704V5.96635C15.7704 6.07824 15.8263 6.18081 15.9382 6.27405C16.0501 6.36729 16.1713 6.41391 16.3018 6.41391C16.4324 6.41391 16.5443 6.36729 16.6375 6.27405C16.7307 6.18081 16.7774 6.07824 16.7774 5.96635V4.95936C16.7774 4.81018 16.7307 4.68896 16.6375 4.59572C16.5443 4.50248 16.423 4.45586 16.2739 4.45586ZM16.2739 15.365C16.162 15.365 16.0501 15.4116 15.9382 15.5048C15.8263 15.5981 15.7704 15.7193 15.7704 15.8685V16.316H15.3228C15.1736 16.316 15.0524 16.3719 14.9592 16.4838C14.8659 16.5957 14.8193 16.7169 14.8193 16.8475C14.8193 16.978 14.8659 17.0899 14.9592 17.1831C15.0524 17.2764 15.1736 17.323 15.3228 17.323H16.2739C16.423 17.323 16.5443 17.2764 16.6375 17.1831C16.7307 17.0899 16.7774 16.9687 16.7774 16.8195V15.8685C16.7774 15.7193 16.7307 15.5981 16.6375 15.5048C16.5443 15.4116 16.423 15.365 16.2739 15.365ZM13.3088 4.45586H12.8053V1.04328C12.8053 0.894093 12.7494 0.772879 12.6375 0.67964C12.5256 0.586399 12.4137 0.53978 12.3018 0.53978H0.497637C0.348453 0.53978 0.227241 0.586399 0.134001 0.67964C0.0407607 0.772879 -0.00585938 0.894093 -0.00585938 1.04328V12.8475C-0.00585938 12.9594 0.0407607 13.0712 0.134001 13.1831C0.227241 13.295 0.348453 13.351 0.497637 13.351H3.91022V13.7985C3.91022 13.9477 3.95685 14.0689 4.05009 14.1622C4.14333 14.2554 4.26454 14.302 4.41372 14.302C4.56291 14.302 4.68412 14.2554 4.77736 14.1622C4.8706 14.0689 4.91722 13.9477 4.91722 13.7985V5.46286H13.3088C13.458 5.46286 13.5792 5.41624 13.6725 5.323C13.7657 5.22976 13.8123 5.10854 13.8123 4.95936C13.8123 4.81018 13.7657 4.68896 13.6725 4.59572C13.5792 4.50248 13.458 4.45586 13.3088 4.45586ZM11.7983 4.45586H4.41372C4.26454 4.45586 4.14333 4.50248 4.05009 4.59572C3.95685 4.68896 3.91022 4.81018 3.91022 4.95936V12.344H1.00113V1.54677H11.7983V4.45586Z" fill="black"/>
</svg>
