<svg width="65" height="19" viewBox="0 0 65 19" fill="none" xmlns="http://www.w3.org/2000/svg">
<path d="M6.00854 4.26157C6.24292 3.79282 6.90698 3.81235 7.12183 4.26157L8.41089 6.85922L11.2625 7.26938C11.7703 7.3475 11.9656 7.9725 11.5945 8.3436L9.5437 10.3553L10.032 13.1873C10.1101 13.6952 9.56323 14.0858 9.11401 13.8514L6.57495 12.5038L4.01636 13.8514C3.56714 14.0858 3.02026 13.6952 3.09839 13.1873L3.58667 10.3553L1.53589 8.3436C1.16479 7.9725 1.36011 7.3475 1.86792 7.26938L4.73901 6.85922L6.00854 4.26157ZM22.2585 4.26157C22.4929 3.79282 23.157 3.81235 23.3718 4.26157L24.6609 6.85922L27.5125 7.26938C28.0203 7.3475 28.2156 7.9725 27.8445 8.3436L25.7937 10.3553L26.282 13.1873C26.3601 13.6952 25.8132 14.0858 25.364 13.8514L22.825 12.5038L20.2664 13.8514C19.8171 14.0858 19.2703 13.6952 19.3484 13.1873L19.8367 10.3553L17.7859 8.3436C17.4148 7.9725 17.6101 7.3475 18.1179 7.26938L20.989 6.85922L22.2585 4.26157ZM38.5085 4.26157C38.7429 3.79282 39.407 3.81235 39.6218 4.26157L40.9109 6.85922L43.7625 7.26938C44.2703 7.3475 44.4656 7.9725 44.0945 8.3436L42.0437 10.3553L42.532 13.1873C42.6101 13.6952 42.0632 14.0858 41.614 13.8514L39.075 12.5038L36.5164 13.8514C36.0671 14.0858 35.5203 13.6952 35.5984 13.1873L36.0867 10.3553L34.0359 8.3436C33.6648 7.9725 33.8601 7.3475 34.3679 7.26938L37.239 6.85922L38.5085 4.26157ZM54.7585 4.26157C54.9929 3.79282 55.657 3.81235 55.8718 4.26157L57.1609 6.85922L60.0125 7.26938C60.5203 7.3475 60.7156 7.9725 60.3445 8.3436L58.2937 10.3553L58.782 13.1873C58.8601 13.6952 58.3132 14.0858 57.864 13.8514L55.325 12.5038L52.7664 13.8514C52.3171 14.0858 51.7703 13.6952 51.8484 13.1873L52.3367 10.3553L50.2859 8.3436C49.9148 7.9725 50.1101 7.3475 50.6179 7.26938L53.489 6.85922L54.7585 4.26157ZM71.0085 4.26157C71.2429 3.79282 71.907 3.81235 72.1218 4.26157L73.4109 6.85922L76.2625 7.26938C76.7703 7.3475 76.9656 7.9725 76.5945 8.3436L74.5437 10.3553L75.032 13.1873C75.1101 13.6952 74.5632 14.0858 74.114 13.8514L71.575 12.5038L69.0164 13.8514C68.5671 14.0858 68.0203 13.6952 68.0984 13.1873L68.5867 10.3553L66.5359 8.3436C66.1648 7.9725 66.3601 7.3475 66.8679 7.26938L69.739 6.85922L71.0085 4.26157Z" fill="#EBB51D"/>
</svg>
