<svg width="42" height="42" viewBox="0 0 42 42" fill="none" xmlns="http://www.w3.org/2000/svg">
<rect x="0.78125" y="15.0906" width="26.8607" height="26.8607" rx="13.4303" fill="#EBB51D"/>
<g clip-path="url(#clip0_116_248)">
<path d="M26.2394 19.7762C26.0305 19.7762 25.8564 19.7066 25.7171 19.5673C24.8118 18.7317 24.394 17.7219 24.4636 16.538C24.4636 15.6327 24.6725 14.7971 25.0904 14.031C25.16 13.8221 25.2819 13.7003 25.456 13.6654C25.6301 13.6306 25.8042 13.6654 25.9783 13.7699C26.1524 13.8744 26.2568 14.0136 26.2916 14.1877C26.3265 14.3618 26.309 14.5185 26.2394 14.6578C25.9609 15.006 25.7868 15.4935 25.7171 16.1202C25.5778 17.0951 25.8912 17.9308 26.6572 18.6272C26.8662 18.8361 26.9184 19.0798 26.8139 19.3584C26.7095 19.637 26.4831 19.7762 26.1349 19.7762H26.2394ZM14.6446 22.5966C13.8785 22.527 13.217 22.2136 12.6598 21.6565C12.0331 21.0297 11.7197 20.2463 11.7197 19.3062C11.7197 18.3661 12.0331 17.5826 12.6598 16.9559L19.2407 10.2705C19.5193 10.0616 19.763 9.88753 19.9719 9.74826C20.1808 9.60898 20.3723 9.57416 20.5464 9.6438C20.7205 9.71344 20.8424 9.8179 20.912 9.95717C20.9817 10.0965 20.9991 10.2531 20.9643 10.4272C20.9295 10.6013 20.825 10.7406 20.6509 10.8451C20.4768 10.9495 20.3201 11.0714 20.1808 11.2107L13.6 17.896C13.1821 18.2442 12.9732 18.7142 12.9732 19.3062C12.9732 19.8981 13.1821 20.3682 13.6 20.7164C13.8089 20.9949 14.0874 21.169 14.4356 21.2387L16.4203 19.2539C16.5596 19.1147 16.7337 19.045 16.9426 19.045L17.8828 19.2539L18.405 18.7317V17.0603C18.405 16.921 18.4747 16.7818 18.614 16.6425C18.7532 16.5032 18.8925 16.4336 19.0318 16.4336L20.8076 16.3291L23.1057 14.031L23.3146 13.8221C23.3842 13.6828 23.5061 13.5958 23.6802 13.561C23.8543 13.5262 24.0284 13.561 24.2025 13.6654C24.3766 13.7699 24.481 13.9092 24.5158 14.0833C24.5507 14.2574 24.4984 14.4141 24.3592 14.5533L24.0458 14.9712L21.5388 17.4782C21.3995 17.6174 21.2602 17.6871 21.121 17.6871H19.763V19.045C19.763 19.2539 19.6934 19.3932 19.5541 19.4629L18.614 20.5074C18.4747 20.6467 18.3006 20.6815 18.0917 20.6119L17.1515 20.5074L15.1668 22.4921C15.0276 22.5618 14.8535 22.5966 14.6446 22.5966ZM26.4483 15.0756C25.1948 15.0756 24.0284 14.7971 22.949 14.24C21.8696 13.6828 20.9817 12.8994 20.2853 11.8896C19.5889 10.8799 19.1885 9.74826 19.084 8.49476C18.9796 7.24126 19.1711 6.0574 19.6585 4.94318C20.146 3.82896 20.8772 2.90625 21.8522 2.17504C22.8271 1.44384 23.9413 0.973774 25.1948 0.764858C25.4037 0.695219 25.5952 0.764858 25.7693 0.973774C25.9434 1.18269 25.9957 1.40902 25.926 1.65275C25.8564 1.89649 25.6823 2.05317 25.4037 2.12281C23.8717 2.33173 22.6356 3.06294 21.6955 4.31643C20.7554 5.56993 20.3898 6.98012 20.5987 8.54699C20.8076 10.1139 21.504 11.3848 22.6878 12.3597C23.8717 13.3347 25.2296 13.7873 26.7617 13.7177C28.2937 13.648 29.5995 13.0387 30.6789 11.8896C31.7583 10.7406 32.298 9.40006 32.298 7.86801C32.298 6.89307 32.0891 5.98776 31.6712 5.1521C31.2534 4.31643 30.6266 3.62005 29.791 3.06294C29.6517 2.92366 29.5821 2.76697 29.5821 2.59287C29.5821 2.41878 29.6343 2.26209 29.7388 2.12281C29.8432 1.98354 29.9825 1.89649 30.1566 1.86167C30.3307 1.82685 30.4874 1.87908 30.6266 2.01836C31.8801 2.92366 32.768 4.10752 33.2903 5.56993C33.8126 7.03234 33.83 8.51217 33.3426 10.0094C32.8551 11.5066 31.9846 12.7253 30.7311 13.6654C29.4776 14.6056 28.05 15.0756 26.4483 15.0756ZM27.9107 2.12281C27.8411 2.12281 27.754 2.1054 27.6496 2.07059C27.5451 2.03576 27.4407 1.94872 27.3362 1.80944C27.2318 1.67016 27.1969 1.49607 27.2318 1.28715C27.2666 1.07823 27.4059 0.921545 27.6496 0.817087C27.8933 0.712629 28.1197 0.747448 28.3286 0.921545C28.5375 1.09564 28.6071 1.28715 28.5375 1.49607C28.4678 1.70498 28.3808 1.86167 28.2763 1.96613C28.1719 2.07059 28.0152 2.12281 27.8063 2.12281H27.9107ZM27.3884 9.12151C26.6224 9.12151 25.9957 8.87777 25.5082 8.3903C25.0207 7.90283 24.777 7.29349 24.777 6.56228C24.777 5.83108 25.0207 5.20433 25.5082 4.68204C25.9957 4.15975 26.605 3.8986 27.3362 3.8986C28.0674 3.8986 28.6942 4.15975 29.2165 4.68204C29.7388 5.20433 29.9999 5.83108 29.9999 6.56228C29.9999 7.29349 29.7388 7.90283 29.2165 8.3903C28.6942 8.87777 28.0848 9.12151 27.3884 9.12151ZM27.3884 5.25656C27.0403 5.25656 26.7269 5.37843 26.4483 5.62216C26.1698 5.8659 26.0305 6.16186 26.0305 6.51006C26.0305 6.85825 26.1698 7.17162 26.4483 7.45018C26.7269 7.72873 27.0403 7.86801 27.3884 7.86801C27.7366 7.86801 28.0326 7.72873 28.2763 7.45018C28.5201 7.17162 28.6419 6.85825 28.6419 6.51006C28.6419 6.16186 28.5201 5.8659 28.2763 5.62216C28.0326 5.37843 27.7366 5.25656 27.3884 5.25656ZM35.8496 32.1023C35.7103 32.1023 35.571 32.0327 35.4317 31.8934C35.2924 31.7541 35.2228 31.6148 35.2228 31.4755V24.059V23.7456C35.1532 23.5367 35.188 23.3452 35.3273 23.1711C35.4665 22.997 35.6406 22.9448 35.8496 23.0144H36.5808L29.5821 17.2692L22.4789 22.91H23.2101C23.4887 22.91 23.6802 22.997 23.7846 23.1711C23.8891 23.3452 23.9413 23.5367 23.9413 23.7456L23.8369 24.059V31.4755C23.8369 31.6148 23.7846 31.7541 23.6802 31.8934C23.5757 32.0327 23.419 32.1023 23.2101 32.1023C23.0012 32.1023 22.8445 32.0327 22.7401 31.8934C22.6356 31.7541 22.5834 31.6148 22.5834 31.4755V24.2679H20.5987C20.3201 24.2679 20.1286 24.1287 20.0241 23.8501C19.9197 23.5715 19.9719 23.3278 20.1808 23.1189L29.1642 15.9113C29.2339 15.8416 29.3557 15.8068 29.5298 15.8068C29.7039 15.8068 29.8606 15.8416 29.9999 15.9113L38.8788 23.1189C39.0878 23.3278 39.14 23.5715 39.0355 23.8501C38.9311 24.1287 38.7396 24.2679 38.461 24.2679H36.5808V31.4755C36.5808 31.6148 36.5111 31.7541 36.3718 31.8934C36.2326 32.0327 36.0585 32.1023 35.8496 32.1023ZM29.5821 21.7609C29.4428 21.7609 29.3035 21.6913 29.1642 21.552C29.025 21.4127 28.9553 21.2561 28.9553 21.082C28.9553 20.9079 29.025 20.7512 29.1642 20.6119C31.5319 18.5227 32.6114 16.3988 32.4024 14.24C32.1935 12.499 31.2534 10.7928 29.5821 9.12151C28.7464 8.28584 27.9107 7.62428 27.0751 7.1368C26.7965 6.99753 26.6572 6.78861 26.6572 6.51006C26.6572 6.2315 26.7791 6.03999 27.0228 5.93554C27.2666 5.83108 27.4929 5.84849 27.7018 5.98776C28.6768 6.54487 29.6169 7.3109 30.5222 8.28584C32.4024 10.1661 33.447 12.0812 33.6559 14.031C33.9345 16.6773 32.7158 19.2191 29.9999 21.6565C29.9303 21.7261 29.791 21.7609 29.5821 21.7609ZM31.2534 31.8934C31.1141 31.8934 30.9748 31.8411 30.8356 31.7367C30.6963 31.6322 30.6266 31.4755 30.6266 31.2666V27.2972C30.6266 27.0187 30.5396 26.7923 30.3655 26.6182C30.1914 26.4441 29.9651 26.3571 29.6865 26.3571H28.9553C28.6768 26.3571 28.4504 26.4441 28.2763 26.6182C28.1022 26.7923 28.0152 27.0187 28.0152 27.2972V31.2666C28.0152 31.4755 27.9456 31.6322 27.8063 31.7367C27.667 31.8411 27.5103 31.8934 27.3362 31.8934C27.1621 31.8934 27.0054 31.8411 26.8662 31.7367C26.7269 31.6322 26.6572 31.4755 26.6572 31.2666V27.2972C26.6572 26.6705 26.8836 26.1308 27.3362 25.6781C27.7889 25.2255 28.3286 24.9991 28.9553 24.9991H29.6865C30.3133 24.9991 30.853 25.2255 31.3056 25.6781C31.7583 26.1308 31.9498 26.6705 31.8801 27.2972V31.2666C31.9498 31.4755 31.915 31.6322 31.7757 31.7367C31.6364 31.8411 31.4623 31.8934 31.2534 31.8934Z" fill="black"/>
</g>
<defs>
<clipPath id="clip0_116_248">
<rect width="31.3374" height="31.3374" fill="white" transform="matrix(1 0 0 -1 9.73438 32.1023)"/>
</clipPath>
</defs>
</svg>
