<svg width="42" height="43" viewBox="0 0 42 43" fill="none" xmlns="http://www.w3.org/2000/svg">
<rect x="0.78125" y="15.293" width="26.8607" height="26.8607" rx="13.4303" fill="#EBB51D"/>
<g clip-path="url(#clip0_116_247)">
<path d="M25.4032 29.2757H15.6886C15.1314 29.2757 14.6788 29.0842 14.3306 28.7012C13.9824 28.3182 13.8083 27.8829 13.8083 27.3954V14.3382L23.6274 5.66816C24.1148 5.25032 24.7068 5.04141 25.4032 5.04141C26.0995 5.04141 26.6915 5.25032 27.1789 5.66816L39.6095 16.6363C39.7487 16.7755 39.9228 16.8278 40.1318 16.7929C40.3407 16.7581 40.5148 16.6711 40.654 16.5318C40.7933 16.3925 40.8456 16.2184 40.8107 16.0095C40.7759 15.8006 40.6889 15.6265 40.5496 15.4872L38.4604 13.7114V6.2949C38.4604 5.25032 38.0774 4.34502 37.3114 3.57899C36.5454 2.81297 35.6401 2.44736 34.5955 2.48218C33.5509 2.517 32.663 2.90002 31.9318 3.63122C31.2006 4.36243 30.8002 5.25032 30.7305 6.2949V6.92165L28.1191 4.62358C27.353 3.92719 26.4477 3.57899 25.4032 3.57899C24.3586 3.57899 23.4533 3.92719 22.6872 4.62358L10.2567 15.4872C10.0478 15.6265 9.94336 15.8006 9.94336 16.0095C9.94336 16.2184 10.013 16.3925 10.1523 16.5318C10.2916 16.6711 10.4656 16.7581 10.6746 16.7929C10.8835 16.8278 11.0576 16.7755 11.1969 16.6363L12.3459 15.6961V27.3954C12.3459 28.3008 12.6767 29.0842 13.3382 29.7458C13.9998 30.4073 14.7833 30.7381 15.6886 30.7381H25.4032C25.6121 30.7381 25.7862 30.6685 25.9255 30.5292C26.0647 30.3899 26.1344 30.2158 26.1344 30.0069C26.1344 29.798 26.0647 29.6239 25.9255 29.4846C25.7862 29.3453 25.6121 29.2757 25.4032 29.2757ZM32.1929 6.2949C32.2626 5.59852 32.5237 5.024 32.9764 4.57135C33.429 4.11869 33.9861 3.90978 34.6477 3.9446C35.3093 3.97942 35.8664 4.22315 36.319 4.6758C36.7717 5.12846 36.998 5.66816 36.998 6.2949V12.3535L32.1929 8.17515V6.2949ZM25.4032 9.84648C24.4282 9.84648 23.5926 10.1947 22.8962 10.8911C22.1998 11.5875 21.8516 12.4231 21.8516 13.3981C21.8516 14.373 22.1998 15.2087 22.8962 15.9051C23.5926 16.6014 24.4282 16.9496 25.4032 16.9496C26.3781 16.9496 27.2138 16.6014 27.9102 15.9051C28.6065 15.2087 28.9547 14.373 28.9547 13.3981C28.9547 12.4231 28.6065 11.5875 27.9102 10.8911C27.2138 10.1947 26.3781 9.84648 25.4032 9.84648ZM27.4923 13.3981C27.4923 14.0248 27.2834 14.5297 26.8656 14.9127C26.4477 15.2957 25.9603 15.4872 25.4032 15.4872C24.8461 15.4872 24.3586 15.2957 23.9407 14.9127C23.5229 14.5297 23.314 14.0422 23.314 13.4503C23.314 12.8584 23.5229 12.3535 23.9407 11.9356C24.3586 11.5178 24.8461 11.3089 25.4032 11.3089C25.9603 11.3089 26.4477 11.5178 26.8656 11.9356C27.2834 12.3535 27.4923 12.8409 27.4923 13.3981ZM40.654 29.5891L38.1471 26.9776C38.7738 26.0723 39.0872 25.0625 39.0872 23.9483C39.0872 22.5556 38.5823 21.3717 37.5725 20.3968C36.5628 19.4218 35.3615 18.9343 33.9687 18.9343C32.576 18.9343 31.3747 19.4218 30.3649 20.3968C29.3552 21.3717 28.8503 22.573 28.8503 24.0006C28.8503 25.4282 29.3552 26.6294 30.3649 27.6044C31.3747 28.5793 32.576 29.0668 33.9687 29.0668C35.1526 29.0668 36.1972 28.7186 37.1025 28.0222L39.505 30.5292C39.6443 30.6685 39.8184 30.7555 40.0273 30.7903C40.2362 30.8252 40.4277 30.7729 40.6018 30.6336C40.7759 30.4944 40.863 30.3203 40.863 30.1114C40.863 29.9024 40.7933 29.7283 40.654 29.5891ZM33.9687 27.6044C32.9938 27.6044 32.1407 27.2562 31.4095 26.5598C30.6783 25.8634 30.3127 25.0103 30.3127 24.0006C30.3127 22.9908 30.6783 22.1377 31.4095 21.4413C32.1407 20.7449 33.0112 20.3968 34.021 20.3968C35.0307 20.3968 35.8838 20.7449 36.5802 21.4413C37.2766 22.1377 37.6248 22.9908 37.6248 24.0006C37.6248 25.0103 37.2766 25.8634 36.5802 26.5598C35.8838 27.2562 35.0133 27.6044 33.9687 27.6044Z" fill="black"/>
</g>
<defs>
<clipPath id="clip0_116_247">
<rect width="31.3374" height="31.3374" fill="white" transform="matrix(1 0 0 -1 9.73438 32.3047)"/>
</clipPath>
</defs>
</svg>
