<svg width="42" height="42" viewBox="0 0 42 42" fill="none" xmlns="http://www.w3.org/2000/svg">
<rect x="0.78125" y="14.6875" width="26.8607" height="26.8607" rx="13.4303" fill="#EBB51D"/>
<g clip-path="url(#clip0_116_246)">
<path d="M21.6436 19.9999C21.6436 20.2089 21.7132 20.3655 21.8525 20.47C21.9918 20.5745 22.131 20.6267 22.2703 20.6267C22.4096 20.6267 22.5489 20.5745 22.6882 20.47C22.8274 20.3655 22.8971 20.2263 22.8971 20.0522C22.8971 19.8781 22.8274 19.7388 22.6882 19.6343C22.5489 19.5299 22.4096 19.4776 22.2703 19.4776C22.131 19.4776 21.9918 19.5299 21.8525 19.6343C21.7132 19.7388 21.6436 19.8607 21.6436 19.9999ZM24.7773 19.9999C24.7773 20.2089 24.847 20.3655 24.9862 20.47C25.1255 20.5745 25.2648 20.6267 25.4041 20.6267C25.5433 20.6267 25.6826 20.5745 25.8219 20.47C25.9612 20.3655 26.0308 20.2263 26.0308 20.0522C26.0308 19.8781 25.9612 19.7388 25.8219 19.6343C25.6826 19.5299 25.5433 19.4776 25.4041 19.4776C25.2648 19.4776 25.1255 19.5299 24.9862 19.6343C24.847 19.7388 24.7773 19.8607 24.7773 19.9999ZM27.9111 19.9999C27.9111 20.2089 27.9807 20.3655 28.12 20.47C28.2593 20.5745 28.3985 20.6267 28.5378 20.6267C28.6771 20.6267 28.8164 20.5745 28.9556 20.47C29.0949 20.3655 29.1646 20.2263 29.1646 20.0522C29.1646 19.8781 29.0949 19.7388 28.9556 19.6343C28.8164 19.5299 28.6771 19.4776 28.5378 19.4776C28.3985 19.4776 28.2593 19.5299 28.12 19.6343C27.9807 19.7388 27.9111 19.8607 27.9111 19.9999ZM15.585 20.6267C14.7493 20.6267 13.9833 20.4004 13.2869 19.9477C12.5905 19.4951 12.0857 18.8857 11.7723 18.1197C11.4589 17.3537 11.3893 16.5528 11.5634 15.7172C11.7375 14.8815 12.1205 14.1677 12.7124 13.5758C13.3043 12.9838 14.0007 12.6182 14.8016 12.479C15.6024 12.3397 16.3859 12.4267 17.1519 12.7401C17.9179 13.0535 18.5447 13.5584 19.0321 14.2547C19.5196 14.9511 19.7633 15.7172 19.7633 16.5528C19.7633 17.667 19.3629 18.6246 18.5621 19.4254C17.7612 20.2263 16.7689 20.6267 15.585 20.6267ZM15.585 13.628C15.0279 13.628 14.5056 13.7847 14.0181 14.0981C13.5307 14.4114 13.1651 14.8467 12.9213 15.4038C12.6776 15.9609 12.6254 16.5354 12.7646 17.1273C12.9039 17.7193 13.1825 18.2067 13.6003 18.5898C14.0181 18.9728 14.5056 19.2339 15.0627 19.3732C15.6198 19.5125 16.1769 19.4602 16.734 19.2165C17.2912 18.9728 17.7264 18.6072 18.0398 18.1197C18.3531 17.6322 18.5098 17.1099 18.5098 16.5528C18.5098 15.7172 18.2313 15.0208 17.6742 14.4637C17.1171 13.9065 16.4207 13.628 15.585 13.628ZM20.9124 28.0432H10.3621C10.1532 28.0432 9.9965 27.991 9.89204 27.8865C9.78758 27.7821 9.73535 27.6254 9.73535 27.4165V25.3273C9.73535 23.7256 10.3099 22.3502 11.4589 21.2012C12.6079 20.0522 14.0007 19.4776 15.6372 19.4776C17.2737 19.4776 18.6491 20.0522 19.7633 21.2012C20.8776 22.3502 21.4695 23.7256 21.5391 25.3273V27.4165C21.5391 27.6254 21.4695 27.7821 21.3302 27.8865C21.1909 27.991 21.0516 28.0432 20.9124 28.0432ZM10.9888 26.7897H20.2856V25.3273C20.2856 24.0738 19.833 22.9944 18.9277 22.0891C18.0224 21.1838 16.9256 20.7311 15.6372 20.7311C14.3489 20.7311 13.2521 21.1838 12.3468 22.0891C11.4415 22.9944 10.9888 24.0738 10.9888 25.3273V26.7897ZM35.2231 20.6267C34.3875 20.6267 33.6214 20.4004 32.9251 19.9477C32.2287 19.4951 31.7238 18.8857 31.4104 18.1197C31.097 17.3537 31.01 16.5528 31.1493 15.7172C31.2885 14.8815 31.6541 14.1677 32.2461 13.5758C32.838 12.9838 33.5518 12.6182 34.3875 12.479C35.2231 12.3397 36.024 12.4267 36.79 12.7401C37.556 13.0535 38.1654 13.5584 38.618 14.2547C39.0707 14.9511 39.297 15.7172 39.297 16.5528C39.297 17.667 38.8966 18.6246 38.0957 19.4254C37.2949 20.2263 36.3374 20.6267 35.2231 20.6267ZM35.2231 13.628C34.5964 13.628 34.0393 13.7847 33.5518 14.0981C33.0643 14.4114 32.7161 14.8467 32.5072 15.4038C32.2983 15.9609 32.2461 16.5354 32.3505 17.1273C32.455 17.7193 32.7161 18.2067 33.134 18.5898C33.5518 18.9728 34.0567 19.2339 34.6486 19.3732C35.2405 19.5125 35.7977 19.4602 36.3199 19.2165C36.8422 18.9728 37.2601 18.6072 37.5734 18.1197C37.8868 17.6322 38.0435 17.1099 38.0435 16.5528C38.0435 15.7172 37.7649 15.0208 37.2078 14.4637C36.6507 13.9065 35.9892 13.628 35.2231 13.628ZM40.446 28.0432H29.8958C29.7565 28.0432 29.6172 27.991 29.4779 27.8865C29.3387 27.7821 29.269 27.6254 29.269 27.4165V25.3273C29.3387 23.7256 29.9306 22.3502 31.0448 21.2012C32.159 20.0522 33.5344 19.4776 35.1709 19.4776C36.8074 19.4776 38.2002 20.0522 39.3492 21.2012C40.4983 22.3502 41.0728 23.7256 41.0728 25.3273V27.4165C41.0728 27.6254 41.0206 27.7821 40.9161 27.8865C40.8116 27.991 40.655 28.0432 40.446 28.0432ZM30.5225 26.7897H39.8193V25.3273C39.8193 24.0738 39.3666 22.9944 38.4613 22.0891C37.556 21.1838 36.4592 20.7311 35.1709 20.7311C33.8826 20.7311 32.7858 21.1838 31.8805 22.0891C30.9752 22.9944 30.5225 24.0738 30.5225 25.3273V26.7897ZM22.5837 16.3439C22.4444 16.3439 22.3051 16.2917 22.1659 16.1872C22.0266 16.0828 21.957 15.9609 21.957 15.8216V13.9414H21.4347C20.8776 13.9414 20.3901 13.7499 19.9722 13.3668C19.5544 12.9838 19.3455 12.5138 19.3455 11.9567V6.00255C19.3455 5.44544 19.5544 4.97538 19.9722 4.59236C20.3901 4.20935 20.8776 4.01784 21.4347 4.01784H29.269C29.8261 4.01784 30.2962 4.20935 30.6792 4.59236C31.0622 4.97538 31.2537 5.44544 31.2537 6.00255V11.9567C31.2537 12.5138 31.0622 12.9838 30.6792 13.3668C30.2962 13.7499 29.8261 13.9414 29.269 13.9414H25.2996L23.0015 16.2394C22.9319 16.3787 22.7926 16.4135 22.5837 16.3439ZM21.4347 5.27134C21.2257 5.27134 21.0342 5.34098 20.8601 5.48026C20.686 5.61953 20.599 5.79363 20.599 6.00255V11.9567C20.599 12.1656 20.686 12.3571 20.8601 12.5312C21.0342 12.7053 21.2257 12.7923 21.4347 12.7923H22.5837C22.7926 12.7923 22.9493 12.8446 23.0538 12.949C23.1582 13.0535 23.2104 13.1753 23.2104 13.3146V14.2547L24.5684 12.8968C24.7077 12.8271 24.847 12.7923 24.9862 12.7923H29.269C29.4779 12.7923 29.6694 12.7053 29.8435 12.5312C30.0176 12.3571 30.1047 12.1656 30.1047 11.9567V6.00255C30.1047 5.79363 30.0176 5.61953 29.8435 5.48026C29.6694 5.34098 29.4779 5.27134 29.269 5.27134H21.4347Z" fill="black"/>
</g>
<defs>
<clipPath id="clip0_116_246">
<rect width="31.3374" height="31.3374" fill="white" transform="matrix(1 0 0 -1 9.73438 31.6992)"/>
</clipPath>
</defs>
</svg>
